<svg xmlns="http://www.w3.org/2000/svg" xmlns:xlink="http://www.w3.org/1999/xlink" width="200" height="200" viewBox="0 0 200 200">
  <defs>
    <clipPath id="a">
      <rect width="16" height="14.686"/>
    </clipPath>
    <linearGradient id="b" x1="0.132" y1="0.015" x2="0.841" y2="0.922" gradientUnits="objectBoundingBox">
      <stop offset="0" stop-color="#9054f9"/>
      <stop offset="1" stop-color="#3f4cfe"/>
    </linearGradient>
    <filter id="c" x="7.563" y="144.063" width="16.917" height="25.878" filterUnits="userSpaceOnUse">
      <feOffset dy="1" input="SourceAlpha"/>
      <feGaussianBlur stdDeviation="0.5" result="d"/>
      <feFlood flood-opacity="0.161"/>
      <feComposite operator="in" in2="d"/>
      <feComposite in="SourceGraphic"/>
    </filter>
    <clipPath id="e">
      <rect width="24" height="24" transform="translate(120 -13)" fill="none"/>
    </clipPath>
    <clipPath id="g">
      <rect width="200" height="200"/>
    </clipPath>
  </defs>
  <g id="f" clip-path="url(#g)">
    <g transform="translate(-116.084 -27.542)">
      <rect width="4.136" height="4.136" rx="1.021" transform="translate(118.083 29.542)"/>
      <rect width="4.136" height="4.136" rx="1.042" transform="translate(124.015 29.542)"/>
      <rect width="4.136" height="4.136" rx="1.078" transform="translate(129.948 29.542)"/>
      <rect width="4.136" height="4.136" rx="1" transform="translate(118.083 35.536)"/>
      <rect width="4.136" height="4.136" rx="1.042" transform="translate(124.015 35.536)"/>
      <rect width="4.136" height="4.136" rx="1.026" transform="translate(129.948 35.536)"/>
      <rect width="4.136" height="4.136" rx="1.104" transform="translate(118.083 41.531)"/>
      <path d="M1.188,0H2.948A1.187,1.187,0,0,1,4.136,1.187V2.948A1.188,1.188,0,0,1,2.948,4.136H1.188A1.188,1.188,0,0,1,0,2.948V1.188A1.188,1.188,0,0,1,1.188,0Z" transform="translate(124.015 41.531)"/>
      <rect width="4.136" height="4.136" rx="1.042" transform="translate(129.948 41.531)"/>
    </g>
    <g transform="translate(-569.3 -466.985)">
      <path d="M624.512,470.142a.809.809,0,0,1,.809.809v12.084a.809.809,0,0,1-.809.809H613.951a.809.809,0,0,1-.809-.809v-8.659a.809.809,0,0,1,.809-.809h1.808a.809.809,0,0,0,.809-.809v-1.808a.809.809,0,0,1,.809-.809h7.136m0-1.142h-7.136a1.953,1.953,0,0,0-1.951,1.951v1.475h-1.475A1.953,1.953,0,0,0,612,474.376v8.659a1.953,1.953,0,0,0,1.951,1.951h10.562a1.953,1.953,0,0,0,1.951-1.951V470.951A1.953,1.953,0,0,0,624.512,469Z" transform="translate(0 0)" fill="#1d1d1d"/>
      <path d="M627.683,493.142h-7.612a.571.571,0,0,1,0-1.142h7.612a.571.571,0,0,1,0,1.142Z" transform="translate(-4.645 -14.246)" fill="#1d1d1d"/>
      <path d="M626.541,500.142h-6.47a.571.571,0,0,1,0-1.142h6.47a.571.571,0,0,1,0,1.142Z" transform="translate(-4.645 -18.582)" fill="#1d1d1d"/>
      <path d="M613.071,474.067c-.146,0-.556.647-.668.535-.223-.223.041-1.287.264-1.51l4.111-3.653a1.966,1.966,0,0,1,1.479,0c.078.16-.449.585-.671.808l-4.111,3.653A1.09,1.09,0,0,1,613.071,474.067Z" transform="translate(-0.31 -0.309)" fill="#1d1d1d"/>
      <path d="M634.425,477.142v2.284h-2.284v-2.284h2.284m0-1.142h-2.284A1.142,1.142,0,0,0,631,477.142v2.284a1.142,1.142,0,0,0,1.142,1.142h2.284a1.142,1.142,0,0,0,1.142-1.142v-2.284A1.142,1.142,0,0,0,634.425,476Z" transform="translate(-11.769 -4.336)" fill="#1d1d1d"/>
    </g>
    <g transform="translate(-237.842 -491.237)">
      <path d="M309.455,501.274a3.784,3.784,0,0,0,3.483-4.019c0-1.871-.4-4.018-3.483-4.018s-3.483,2.148-3.483,4.018A3.784,3.784,0,0,0,309.455,501.274Zm0-7.16c2.18,0,2.606,1.152,2.606,3.142a2.652,2.652,0,1,1-5.213,0C306.849,495.265,307.275,494.114,309.455,494.114Z" transform="translate(-1.925)" fill="#1d1d1d"/>
      <path d="M313.718,512.481c0-.019,0-.081-.005-.221-.06-3.638-.649-4.8-4.44-5.457l-.249-.037-.162.187a2.163,2.163,0,0,1-2.659.005l-.162-.2-.254.044c-3.749.653-4.37,1.847-4.437,5.343,0,.151-.006.217-.006.24,0,.123,0,.492,0,.492l.048.094c.1.193,1.113,1.885,6.141,1.885s6.041-1.692,6.14-1.885C313.671,512.972,313.716,512.6,313.718,512.481Zm-.875.15c-.247.288-1.423,1.349-5.312,1.349-3.913,0-5.079-1.074-5.312-1.347v-.227h0V512.4c.008-.079.01-.158.012-.231.058-3.029.387-3.868,3.4-4.441a.221.221,0,0,1,.173.04,3.112,3.112,0,0,0,3.462,0,.221.221,0,0,1,.173-.04c3.043.576,3.35,1.386,3.4,4.551h0c0,.067,0,.142.01.217v.013Z" transform="translate(0 -5.62)" fill="#1d1d1d"/>
    </g>
    <g transform="translate(42.5 22)">
      <path d="M12.8,9.6V5.333a5.333,5.333,0,1,0-10.667,0V9.6L0,13.867H4.853a2.667,2.667,0,0,0,5.227,0h4.853ZM7.467,14.933a1.554,1.554,0,0,1-1.493-1.067H8.96A1.554,1.554,0,0,1,7.467,14.933ZM1.6,12.8,3.2,9.6V5.333a4.267,4.267,0,1,1,8.533,0V9.6l1.6,3.2Z"/>
    </g>
    <g transform="translate(-748.5 -634.318)">
      <path d="M863.441,674.267h-9.882a2.06,2.06,0,0,1-2.059-2.056v-8.774a2.06,2.06,0,0,1,2.059-2.056h9.882a2.06,2.06,0,0,1,2.059,2.056v8.774A2.06,2.06,0,0,1,863.441,674.267Zm-11.118-8.773v6.717a1.236,1.236,0,0,0,1.235,1.234h9.882a1.236,1.236,0,0,0,1.235-1.234v-6.717Zm0-.822h12.353v-1.234a1.236,1.236,0,0,0-1.235-1.234h-9.882a1.236,1.236,0,0,0-1.235,1.234Z" transform="translate(0 -2.949)"/>
      <path d="M865.873,659.232H864.5v-1.588a.326.326,0,0,1,.326-.326h.721a.326.326,0,0,1,.326.326Zm6.043-.131h-1.373v-1.51a.273.273,0,0,1,.273-.273h.826a.273.273,0,0,1,.273.273Z" transform="translate(-9.431)"/>
      <rect width="1.51" height="1.394" rx="0.697" transform="translate(859.285 663.915)"/>
      <rect width="1.51" height="1.394" rx="0.697" transform="translate(862.08 663.915)"/>
      <rect width="1.51" height="1.394" rx="0.697" transform="translate(853.696 663.915)"/>
      <rect width="1.51" height="1.394" rx="0.697" transform="translate(856.491 663.915)"/>
      <rect width="1.51" height="1.394" rx="0.697" transform="translate(859.285 666.537)"/>
      <rect width="1.51" height="1.394" rx="0.697" transform="translate(853.696 666.537)"/>
      <rect width="1.51" height="1.394" rx="0.697" transform="translate(856.491 666.537)"/>
    </g>
    <path d="M842.466-128.117l2.968-3.227a.766.766,0,0,0-.564-1.285h-5.936a.766.766,0,0,0-.564,1.285l2.968,3.227A.766.766,0,0,0,842.466-128.117Z" transform="translate(-712.07 159.984)"/>
    <g transform="translate(-295 -273)">
      <line y1="12" transform="translate(445 297)" fill="none" stroke="#1d1d1d" stroke-linecap="round" stroke-linejoin="round" stroke-width="1.5"/>
      <line x2="12" transform="translate(439 303)" fill="none" stroke="#1d1d1d" stroke-linecap="round" stroke-linejoin="round" stroke-width="1.5"/>
    </g>
    <path d="M118.968,292.448a.457.457,0,0,1-.458-.458v-3.9a11.231,11.231,0,0,0-8.325,3.551.458.458,0,0,1-.8-.225,7.413,7.413,0,0,1,2.1-6,10.146,10.146,0,0,1,7.022-2.963v-3.55a.458.458,0,0,1,.786-.319l6.4,6.6a.458.458,0,0,1,0,.641l-6.4,6.486A.458.458,0,0,1,118.968,292.448Zm-.955-5.286q.488,0,1,.047a.458.458,0,0,1,.415.456v3.21l5.3-5.374-5.3-5.466v2.875a.457.457,0,0,1-.14.329.452.452,0,0,1-.334.128c-.043,0-4.285-.118-6.793,2.675a6.658,6.658,0,0,0-1.894,4.237A11.865,11.865,0,0,1,118.013,287.162Z" transform="translate(72.262 -255.448)"/>
    <path d="M1168.1,2542.509a1.678,1.678,0,0,1-1.615-1.408,1.629,1.629,0,0,1,.818-1.519l.8-4.055.8,4.055a1.629,1.629,0,0,1,.818,1.519A1.774,1.774,0,0,1,1168.1,2542.509Zm-4.166-9.283.929-.671,1.342,1.844-.929.671Zm-2,3.348,2.175.7.347-1.084-2.168-.7Zm.354,3.871,2.168-.7-.347-1.084-2.175.708Zm11.974-1.077-2.175-.708-.354,1.084,2.175.7Zm-.354-3.878-2.175.7.354,1.084,2.175-.7Zm-2.573-2.935-1.342,1.844.922.671,1.349-1.844Zm-3.812-.862v2.278h1.143v-2.278Zm7.624,6.267a7.053,7.053,0,1,0-13.508,2.883,6.228,6.228,0,0,0-.833.4,7.9,7.9,0,0,1-.708-3.281,8,8,0,0,1,16,0,7.9,7.9,0,0,1-.708,3.281,6.325,6.325,0,0,0-.833-.4,7.225,7.225,0,0,0,.59-2.883Z" transform="translate(-1138.1 -2526)" fill="#1d1d1d" fill-rule="evenodd"/>
    <path d="M1229.98,2533.5v-2.34c0-1.507-1.188-2.014-2.651-2.014a.458.458,0,0,0-.442.463.446.446,0,0,0,.442.457c.971,0,1.76.094,1.76,1.094v1.21h-13.1v-1.21c0-1,.79-1.094,1.76-1.094a.452.452,0,0,0,.442-.456.459.459,0,0,0-.449-.464c-1.456,0-2.644.507-2.644,2.014v9.99c0,1.507,1.188,2.007,2.644,2.007h4.4c.876,0,.782-.92-.065-.92h-4.339c-.971,0-1.753-.087-1.753-1.087v-7.86h13.1v.188a.52.52,0,0,0,.543.572C1229.937,2534.072,1229.951,2533.666,1229.98,2533.5Zm-9.577-3.441h4.245a.446.446,0,0,0,.449-.449.453.453,0,0,0-.449-.456H1220.4a.452.452,0,0,0-.449.456.447.447,0,0,0,.449.449Zm-1.449,4.354h-1.029a.46.46,0,0,0-.449.464.453.453,0,0,0,.449.456h1.029a.451.451,0,0,0,.442-.456.458.458,0,0,0-.442-.464Zm.159-2.89a.447.447,0,0,0,.442-.456v-2.651a.454.454,0,0,0-.442-.463.459.459,0,0,0-.449.463v2.652a.453.453,0,0,0,.449.456Zm6.9,0a.453.453,0,0,0,.449-.456v-2.651a.449.449,0,0,0-.9,0v2.651a.453.453,0,0,0,.449.456Zm-3.021,2.89h-1.021a.46.46,0,0,0-.449.464.453.453,0,0,0,.449.456H1223a.453.453,0,0,0,.449-.456.459.459,0,0,0-.449-.463Zm-4.042,2.6h-1.029a.453.453,0,0,0-.449.456.459.459,0,0,0,.449.464h1.029a.458.458,0,0,0,.442-.464A.451.451,0,0,0,1218.954,2537.013Zm7.889-2.507a4.121,4.121,0,1,1-3.984,4.122A4.057,4.057,0,0,1,1226.843,2534.506Zm-.007.927a3.17,3.17,0,1,1-3.093,3.173,3.131,3.131,0,0,1,3.093-3.173Zm1.355,1.956-1.731,1.84-.833-.855a.4.4,0,0,0-.572-.058.353.353,0,0,0,.007.55l1.2,1.224a.29.29,0,0,0,.2.087.3.3,0,0,0,.21-.087l2.043-2.093a.47.47,0,0,0,.051-.623.391.391,0,0,0-.572.014Zm-9.237,2.326h-1.029a.459.459,0,0,0-.449.463.453.453,0,0,0,.449.456h1.029a.451.451,0,0,0,.442-.456.458.458,0,0,0-.442-.464Zm4.2-2.282-.681-.42h-.5a.453.453,0,0,0-.449.456.459.459,0,0,0,.449.464h.29Zm-.109,2.7h-.29a.454.454,0,0,0-.442.464.447.447,0,0,0,.442.456h.609Z" transform="translate(-1133.1 -2525.451)" fill="#1d1d1d" fill-rule="evenodd"/>
    <g transform="translate(-598 -1697.18)">
      <g transform="translate(-13.682 0)" fill="none" stroke-linejoin="round">
        <path d="M724,1699.985v4.862h4.862s0-2.431-1.215-3.646A5.032,5.032,0,0,0,724,1699.985Z" stroke="none"/>
        <path d="M 724.296630859375 1699.975219726563 C 724.10986328125 1699.975219726563 723.9999389648438 1699.985229492188 723.9999389648438 1699.985229492188 L 723.9999389648438 1704.846801757813 L 728.8616333007813 1704.846801757813 C 728.8616333007813 1704.846801757813 728.8616333007813 1702.416137695313 727.6461791992188 1701.200561523438 C 726.5432739257813 1700.097778320313 724.9501953125 1699.975219726563 724.296630859375 1699.975219726563 M 724.296630859375 1698.975219726563 C 724.296630859375 1698.975219726563 724.296630859375 1698.975219726563 724.296630859375 1698.975219726563 C 725.059814453125 1698.975219726563 726.9828491210938 1699.123168945313 728.3532104492188 1700.493408203125 C 729.8193359375 1701.959594726563 729.8616333007813 1704.5556640625 729.8616333007813 1704.846801757813 C 729.8616333007813 1705.399047851563 729.4139404296875 1705.846801757813 728.8616333007813 1705.846801757813 L 723.9999389648438 1705.846801757813 C 723.4476318359375 1705.846801757813 722.9999389648438 1705.399047851563 722.9999389648438 1704.846801757813 L 722.9999389648438 1699.985229492188 C 722.9999389648438 1699.468017578125 723.394287109375 1699.0361328125 723.9093627929688 1698.989379882813 C 723.9352416992188 1698.986938476563 724.07568359375 1698.975219726563 724.296630859375 1698.975219726563 Z" stroke="none" fill="#1d1d1d"/>
      </g>
      <g transform="translate(0 -2.989)" fill="none" stroke-linejoin="round">
        <path d="M713.559,1711.482a6.281,6.281,0,1,1-12.559.125c0-3.511,2.566-6.607,6.077-6.607v6.482Z" stroke="none"/>
        <path d="M 707.0769653320313 1704.999877929688 C 703.5657348632813 1704.999877929688 700.9999389648438 1708.095458984375 700.9999389648438 1711.60693359375 C 700.9999389648438 1715.11767578125 703.846435546875 1717.964233398438 707.3572998046875 1717.964233398438 C 710.86865234375 1717.964233398438 713.5591430664063 1714.993286132813 713.5591430664063 1711.482055664063 L 707.0769653320313 1711.482055664063 L 707.0769653320313 1704.999877929688 M 707.0769653320313 1703.999877929688 C 707.6292114257813 1703.999877929688 708.0769653320313 1704.447631835938 708.0769653320313 1704.999877929688 L 708.0769653320313 1710.482055664063 L 713.5591430664063 1710.482055664063 C 714.1114501953125 1710.482055664063 714.5591430664063 1710.929809570313 714.5591430664063 1711.482055664063 C 714.5591430664063 1713.453735351563 713.8290405273438 1715.315795898438 712.5033569335938 1716.724975585938 C 711.1450805664063 1718.1689453125 709.3174438476563 1718.964233398438 707.3572998046875 1718.964233398438 C 703.3004150390625 1718.964233398438 699.9999389648438 1715.663818359375 699.9999389648438 1711.60693359375 C 699.9999389648438 1709.62841796875 700.7013549804688 1707.751342773438 701.9750366210938 1706.321411132813 C 703.30859375 1704.824340820313 705.1204833984375 1703.999877929688 707.0769653320313 1703.999877929688 Z" stroke="none" fill="#1d1d1d"/>
      </g>
    </g>
    <g transform="translate(-663.68 -817.526)">
      <path d="M793.91,821.079a6.831,6.831,0,1,1-6.831,6.832,6.832,6.832,0,0,1,6.831-6.832m0-1.079a7.91,7.91,0,1,0,7.91,7.91,7.919,7.919,0,0,0-7.91-7.91Z" transform="translate(-0.32)" fill="#1d1d1d"/>
      <path d="M806.54,835.961a.539.539,0,0,1-.262-1.011,8.3,8.3,0,0,0,3.857-6.719,7.846,7.846,0,0,0-3.837-6.709.539.539,0,0,1,.483-.964,8.989,8.989,0,0,1,4.433,7.673,9.333,9.333,0,0,1-4.413,7.663A.539.539,0,0,1,806.54,835.961Z" transform="translate(-13.129 -0.321)" fill="#1d1d1d"/>
      <path d="M799.733,836a9.257,9.257,0,0,1-4.233-7.663c0-3.213,1.789-6.441,4.253-7.673l.483.964c-2.119,1.06-3.657,3.882-3.657,6.709a8.1,8.1,0,0,0,3.677,6.719Z" transform="translate(-6.404 -0.422)" fill="#1d1d1d"/>
      <path d="M806.539,835.961a.539.539,0,0,1-.539-.539V821.039a.539.539,0,1,1,1.079,0v14.382A.539.539,0,0,1,806.539,835.961Z" transform="translate(-13.129 -0.32)" fill="#1d1d1d"/>
      <path d="M799.779,842.079H786.016a.54.54,0,0,1,0-1.079h13.763a.54.54,0,0,1,0,1.079Z" transform="translate(0.666 -13.449)" fill="#1d1d1d"/>
    </g>
    <g transform="translate(1.879 23)">
      <path d="M578.567,453.221a.691.691,0,0,0,.489-1.179l-6.458-6.458,6.458-6.458a.691.691,0,0,0-.977-.977l-6.946,6.946a.69.69,0,0,0,0,.977l6.946,6.946A.688.688,0,0,0,578.567,453.221Z" transform="translate(-567.931 -437.946)"/>
    </g>
    <g transform="translate(25.879 23)">
      <path d="M571.621,453.221a.691.691,0,0,1-.489-1.179l6.458-6.458-6.458-6.458a.691.691,0,0,1,.977-.977l6.946,6.946a.69.69,0,0,1,0,.977l-6.946,6.946A.688.688,0,0,1,571.621,453.221Z" transform="translate(-570.93 -437.946)"/>
    </g>
    <g transform="translate(-165.023 -110.715)">
      <path d="M253.728,147.124a.781.781,0,0,1-.555-.23l-5.919-5.918-.012-.012h0a.785.785,0,0,1,0-1.088h0l.012-.012,5.919-5.918a.785.785,0,0,1,1.11,1.11l-4.58,4.58h12.232a.785.785,0,1,1,0,1.57H249.7l4.58,4.58a.785.785,0,0,1-.555,1.34Z" transform="translate(0 0)"/>
    </g>
    <path d="M101.451,619.121l3.409,3.2,7.043-7.043" transform="translate(-56.667 -568.778)" fill="none" stroke="#000" stroke-linecap="round" stroke-linejoin="round" stroke-width="1.5"/>
    <g transform="translate(90.192 -241.441)">
      <g transform="translate(-27.192 283.441)">
        <path d="M-25.977,296.81a1.213,1.213,0,0,1-.879-.372,1.2,1.2,0,0,1-.335-.87l.076-2.841a1.2,1.2,0,0,1,.365-.834l7.945-7.738a2.6,2.6,0,0,1,1.793-.713h0a2.506,2.506,0,0,1,1.774.76l.917.941a2.505,2.505,0,0,1,.713,1.793,2.506,2.506,0,0,1-.76,1.774l-7.948,7.741a1.2,1.2,0,0,1-.836.343Zm8.931-12.266a1.41,1.41,0,0,0-.99.4l-7.945,7.739a.1.1,0,0,0-.032.073l-.076,2.842a.1.1,0,0,0,.029.076.1.1,0,0,0,.074.033l2.827-.017a.1.1,0,0,0,.072-.03l7.948-7.741a1.407,1.407,0,0,0,.426-1,1.409,1.409,0,0,0-.4-1.009l-.917-.941a1.407,1.407,0,0,0-1-.426h-.019Z" transform="translate(27.192 -283.441)" fill="#1d1d1d"/>
        <path d="M-10.469,291.451a.547.547,0,0,1-.383-.155l-3.54-3.426a.552.552,0,0,1-.013-.78.551.551,0,0,1,.78-.013l3.54,3.426a.552.552,0,0,1,.013.78A.553.553,0,0,1-10.469,291.451Z" transform="translate(21.529 -285.001)" fill="#1d1d1d"/>
      </g>
      <rect width="13.584" height="1.414" rx="0.707" transform="translate(-27.192 298.027)" fill="#1d1d1d"/>
    </g>
    <g transform="translate(126.75 -275.423)">
      <path d="M-36.75,332.423a7.008,7.008,0,0,1-7-7,7.008,7.008,0,0,1,7-7,7.008,7.008,0,0,1,7,7A7.008,7.008,0,0,1-36.75,332.423Zm0-13.44a6.447,6.447,0,0,0-6.44,6.44,6.447,6.447,0,0,0,6.44,6.44,6.447,6.447,0,0,0,6.44-6.44A6.447,6.447,0,0,0-36.75,318.983Zm3.963,6.79h0l-4.015-.034a.28.28,0,0,1-.277-.28v-4.2a.28.28,0,0,1,.28-.28.28.28,0,0,1,.28.28v3.923l3.737.032a.28.28,0,0,1,.277.283A.28.28,0,0,1-32.787,325.773Z" stroke="#000" stroke-width="0.5"/>
    </g>
    <g transform="translate(-1155.533 -56.833)">
      <g transform="translate(1260.333 101.333)">
        <rect width="4.5" height="4.5" rx="0.8" transform="translate(0)"/>
        <rect width="4.5" height="4.5" rx="0.8" transform="translate(6.237)"/>
        <rect width="4.5" height="4.5" rx="0.8" transform="translate(0 6.322)"/>
        <rect width="4.5" height="4.5" rx="0.8" transform="translate(6.237 6.322)"/>
      </g>
    </g>
    <g transform="translate(-129.123 -214.858)">
      <path d="M271.787,281.958h-10.62a.655.655,0,0,1,0-1.286h10.62a.655.655,0,0,1,0,1.286Z" transform="translate(-8.016 -21.367)" fill="#1d1d1d" stroke="#1d1d1d" stroke-width="0.2"/>
      <path d="M272,289.958H261.167a.655.655,0,0,1,0-1.286H272a.655.655,0,0,1,0,1.286Z" transform="translate(-8.016 -25.141)" fill="#1d1d1d" stroke="#1d1d1d" stroke-width="0.2"/>
      <path d="M272.111,297.959H261.167a.655.655,0,0,1,0-1.286h10.944a.655.655,0,0,1,0,1.286Z" transform="translate(-8.016 -28.916)" fill="#1d1d1d" stroke="#1d1d1d" stroke-width="0.2"/>
    </g>
    <g transform="translate(-292 -868)">
      <path d="M-8130.181,944h-.363c-1.887,0-5.456-.988-5.456-4.727a3.966,3.966,0,0,1,1.147-2.894,5.242,5.242,0,0,1,2.265-1.3c.26-.927,1.229-3.083,4.588-3.083,3.607,0,4.685,3.362,4.929,4.392a3.676,3.676,0,0,1,2.11,1A3.555,3.555,0,0,1-8120,940c0,3.164-3.568,4-5.454,4h-.727v-1.09h.727c.043,0,4.364-.033,4.364-2.91a2.375,2.375,0,0,0-2.608-2.56,2.731,2.731,0,0,0-.3.014,6.8,6.8,0,0,0-.637-2.182A3.637,3.637,0,0,0-8128,933.09a3.444,3.444,0,0,0-3.182,1.455,3.061,3.061,0,0,0-.455,1.455c-.034,0-3.273.4-3.273,3.273a3.28,3.28,0,0,0,2.183,3.182,6.423,6.423,0,0,0,2.183.455h.363V944Z" transform="translate(8570 -21)" stroke="rgba(0,0,0,0)" stroke-width="1"/>
      <g transform="translate(438.909 914.909)">
        <path d="M450.409,931.841a.545.545,0,0,1-.545-.545v-7.665l-1.429,1.456a.545.545,0,0,1-.779-.764l2.364-2.409a.545.545,0,0,1,.935.382v9A.545.545,0,0,1,450.409,931.841Z" transform="translate(-447.5 -921.751)"/>
        <path d="M457.477,925.2a.543.543,0,0,1-.4-.175l-2.182-2.364a.546.546,0,0,1,.8-.74l2.182,2.364a.545.545,0,0,1-.4.916Z" transform="translate(-452.114 -921.75)"/>
      </g>
    </g>
    <g transform="translate(-585.453 -204.522)">
      <path d="M760.754,277.234a.417.417,0,0,0-.589-.589l-4.443,4.434-4.289-4.434a.417.417,0,1,0-.589.589l4.878,4.955Z" transform="translate(0 -20)" stroke="#000" stroke-linecap="round" stroke-linejoin="round" stroke-width="0.5"/>
      <path d="M750.844,251.477a.417.417,0,0,0,.589.589l4.443-4.433,4.289,4.433a.417.417,0,1,0,.589-.589l-4.878-4.955Z" stroke="#000" stroke-linecap="round" stroke-linejoin="round" stroke-width="0.5"/>
    </g>
    <g transform="translate(-83.445 120.464)">
      <g transform="translate(-1 -1)">
        <path d="M358.609,144.028h-9.68a1.486,1.486,0,0,1-1.485-1.485V129.513a1.486,1.486,0,0,1,1.485-1.485h9.68a1.486,1.486,0,0,1,1.485,1.485v13.031A1.486,1.486,0,0,1,358.609,144.028Zm-9.68-15.733a1.219,1.219,0,0,0-1.217,1.217v13.031a1.219,1.219,0,0,0,1.217,1.217h9.68a1.219,1.219,0,0,0,1.217-1.217V129.513a1.218,1.218,0,0,0-1.217-1.217Z" transform="translate(-259.8 -185.492)" fill="#1d1d1d" stroke="#1d1d1d" stroke-width="0.8"/>
        <rect width="5.434" height="0.6" transform="translate(89.655 -53.604)" fill="#1d1d1d"/>
        <rect width="8.559" height="0.6" transform="translate(89.655 -52.697)" fill="#1d1d1d"/>
        <rect width="5.434" height="0.6" transform="translate(89.655 -49.958)" fill="#1d1d1d"/>
        <rect width="8.559" height="0.6" transform="translate(89.655 -49.051)" fill="#1d1d1d"/>
        <rect width="5.434" height="0.6" transform="translate(89.655 -46.428)" fill="#1d1d1d"/>
        <rect width="8.559" height="0.6" transform="translate(89.655 -45.522)" fill="#1d1d1d"/>
      </g>
    </g>
    <g transform="translate(-856 -937.545)">
      <g transform="translate(883.301 1000.545)" fill="none" stroke="#1d1d1d" stroke-linecap="round" stroke-linejoin="round" stroke-width="1">
        <rect width="5.398" height="2.249" stroke="none"/>
        <rect x="-0.5" y="-0.5" width="6.398" height="3.249" fill="none"/>
      </g>
      <g transform="translate(878 1003.75)" fill="none" stroke="#1d1d1d" stroke-linecap="round" stroke-linejoin="round" stroke-width="1">
        <rect width="16" height="11.079" stroke="none"/>
        <rect x="-0.5" y="-0.5" width="17" height="12.079" fill="none"/>
      </g>
      <path d="M878,1017s4.444,2.249,8,2.249,8-2.249,8-2.249" transform="translate(0 -9.298)" fill="none" stroke="#1d1d1d" stroke-linecap="round" stroke-linejoin="round" stroke-width="1"/>
      <g transform="translate(885.1 1009.485)" fill="#fff" stroke="#1d1d1d" stroke-linecap="round" stroke-linejoin="round" stroke-width="1">
        <rect width="1.799" height="1.349" stroke="none"/>
        <rect x="-0.5" y="-0.5" width="2.799" height="2.349" fill="none"/>
      </g>
      <rect width="1.799" height="1.349" transform="translate(885.101 1009.485)" fill="#fff"/>
    </g>
    <path d="M82.2,126.837l7.175-3.505a2.939,2.939,0,0,1,2.289,0L99,126.837a.884.884,0,0,1,.6.783c0,.186-.082.515-.6.784l-.6.289v3.3a1.01,1.01,0,0,1,.639.928,1.024,1.024,0,0,1-.619.928l.928,2.948h-2.6l.928-2.948a1,1,0,0,1,.021-1.856v-2.948l-1.093.536v4.289a.333.333,0,0,1-.062.186,7.778,7.778,0,0,1-11.856,0,.332.332,0,0,1-.062-.186V129.6L82.2,128.4a.884.884,0,0,1-.6-.784A.922.922,0,0,1,82.2,126.837Zm3.093,6.928a7.112,7.112,0,0,0,10.639,0v-3.9l-4.268,2.041a2.781,2.781,0,0,1-1.134.227,2.511,2.511,0,0,1-1.155-.247l-4.082-2Zm-2.8-5.938,2.474,1.217a.237.237,0,0,1,.227.124l4.474,2.165a2.289,2.289,0,0,0,1.732,0l5.505-2.639-6.33-.742a.321.321,0,0,1,.062-.639l7.34.866.742-.351a.416.416,0,0,0,.227-.186c0-.021-.041-.1-.227-.186l-7.34-3.526a2.13,2.13,0,0,0-.845-.165,2.09,2.09,0,0,0-.866.165l-7.175,3.505c-.186.082-.227.165-.227.206A.567.567,0,0,0,82.487,127.827Z" transform="translate(-40.6 -59.6)" fill="#1d1d1d" stroke="#1d1d1d" stroke-width="0.2"/>
    <g transform="translate(-521.834 -85.293)">
      <g transform="translate(584.5 147.47)">
        <g transform="translate(0)">
          <path d="M14459.229,1790.941h-8.5a1.393,1.393,0,0,1-1.394-1.39v-12.334a1.4,1.4,0,0,1,1.394-1.394h6.733a1.4,1.4,0,0,1,1.169.639l2.937,3.5c.016.019.028.038.041.057l.006.008a1.431,1.431,0,0,1,.2.719v5.094a2.867,2.867,0,0,0-.508-.172v-4.922a.865.865,0,0,0-.128-.454l-2.958-3.525a.886.886,0,0,0-.755-.428h-6.733a.883.883,0,0,0-.882.882v12.334a.883.883,0,0,0,.882.882h7.849a2.874,2.874,0,0,0,.65.506Z" transform="translate(-14449.334 -1775.824)" fill="#1d1d1d" stroke="#1d1d1d" stroke-width="0.2"/>
          <g transform="translate(7.93 9.252)">
            <path d="M730.5,1029.317a2.864,2.864,0,1,1-2.864,2.864,2.864,2.864,0,0,1,2.864-2.864m0-.511a3.374,3.374,0,1,0,3.374,3.374,3.378,3.378,0,0,0-3.374-3.374Z" transform="translate(-727.129 -1028.806)" fill="#1d1d1d" stroke="#1d1d1d" stroke-width="0.2"/>
          </g>
        </g>
        <path d="M741.447,1048.549a.255.255,0,0,1-.181-.075l-1.191-1.192a.255.255,0,0,1,.361-.361l1.011,1.011,1.692-1.692a.255.255,0,0,1,.361.361l-1.872,1.872A.256.256,0,0,1,741.447,1048.549Z" transform="translate(-730.427 -1034.699)" fill="#1d1d1d" stroke="#1d1d1d" stroke-width="0.2"/>
      </g>
      <rect width="4.818" height="0.723" rx="0.361" transform="translate(586.668 150.97)" fill="#1d1d1d" opacity="0.4"/>
      <rect width="7.709" height="0.723" rx="0.361" transform="translate(586.668 152.657)" fill="#1d1d1d" opacity="0.4"/>
      <rect width="7.709" height="0.723" rx="0.361" transform="translate(586.668 154.343)" fill="#1d1d1d" opacity="0.4"/>
    </g>
    <g transform="translate(-1038.5 -418.2)">
      <path d="M5.355,0a2.08,2.08,0,0,0-.022.3A2.208,2.208,0,0,0,9.747.3,2.08,2.08,0,0,0,9.725,0H15.08V4.744a.543.543,0,0,1-.552.533H.552A.543.543,0,0,1,0,4.744V0Z" transform="translate(1121 490.723)" fill="none"/>
      <path d="M9.931,5.7a2.391,2.391,0,1,1-4.782,0q0-.064,0-.128H0L1.758.375A.552.552,0,0,1,2.281,0H12.8a.552.552,0,0,1,.523.375l1.758,5.2H9.928Q9.931,5.637,9.931,5.7Z" transform="translate(1121 484.965)" fill="none"/>
      <path d="M7.634,4.222A2.067,2.067,0,0,1,5.668,6.253,2.067,2.067,0,0,1,3.7,4.222c0-.033,0-.25,0-.282H0L1.446.29A.452.452,0,0,1,1.875,0H9.461a.452.452,0,0,1,.43.29l1.446,3.649H7.631C7.633,3.972,7.634,4.188,7.634,4.222Z" transform="translate(1122.872 486.621)" fill="rgba(0,0,0,0.4)"/>
      <g transform="translate(1121 484.965)" fill="none" stroke-linejoin="round" stroke-miterlimit="10">
        <path d="M1.758.375A.552.552,0,0,1,2.281,0H12.8a.552.552,0,0,1,.523.375l1.758,5.2v4.909a.552.552,0,0,1-.552.552H.552A.552.552,0,0,1,0,10.483V5.574Z" stroke="none"/>
        <path d="M 2.45897388458252 0.7999973297119141 L 0.8000030517578125 5.705219745635986 L 0.8000030517578125 10.23443698883057 L 14.28024291992188 10.23443698883057 L 14.28024291992188 5.705220222473145 L 12.62126541137695 0.7999973297119141 L 2.45897388458252 0.7999973297119141 M 2.280853271484375 -2.86102294921875e-06 L 12.79939270019531 -2.86102294921875e-06 C 13.03598308563232 -2.86102294921875e-06 13.2462329864502 0.1508474349975586 13.3220329284668 0.3749570846557617 L 15.08024311065674 5.573606967926025 L 15.08024311065674 10.48271751403809 C 15.08024311065674 10.7874174118042 14.83323287963867 11.03443717956543 14.52853298187256 11.03443717956543 L 0.5517129898071289 11.03443717956543 C 0.2470130920410156 11.03443717956543 2.86102294921875e-06 10.7874174118042 2.86102294921875e-06 10.48271751403809 L 2.86102294921875e-06 5.573606967926025 L 1.758213043212891 0.3749570846557617 C 1.834012985229492 0.1508474349975586 2.044262886047363 -2.86102294921875e-06 2.280853271484375 -2.86102294921875e-06 Z" stroke="none" fill="#1d1d1d"/>
      </g>
      <path d="M2.6,2.575a2.269,2.269,0,0,1-1.6-.646A2.168,2.168,0,0,1,.345.368C.345.239.345,0,0,0H5.189C4.86.008,4.86.242,4.86.368A2.168,2.168,0,0,1,4.2,1.929,2.269,2.269,0,0,1,2.6,2.575Z" transform="translate(1125.918 490.483)" fill="none" stroke="#1d1d1d" stroke-linecap="round" stroke-linejoin="round" stroke-miterlimit="10" stroke-width="0.8"/>
      <path d="M9.581.791,7.54,3.082ZM4.8,0V0ZM0,.791l2.041,2.29Z" transform="translate(1123.575 480)" fill="none" stroke="rgba(29,29,29,0.4)" stroke-linecap="round" stroke-linejoin="round" stroke-miterlimit="10" stroke-width="1"/>
    </g>
    <g transform="translate(-172.5 -138.381)">
      <g transform="translate(274.5 200.381)">
        <path d="M284.472,215.562h-7.144a2.831,2.831,0,0,1-2.828-2.828v-9.526a2.831,2.831,0,0,1,2.828-2.828h7.144a2.831,2.831,0,0,1,2.828,2.828v4.316a.447.447,0,0,1-.893,0v-4.316a1.937,1.937,0,0,0-1.935-1.935h-7.144a1.937,1.937,0,0,0-1.935,1.935v9.526a1.937,1.937,0,0,0,1.935,1.935h7.144a1.925,1.925,0,0,0,.96-.257.447.447,0,0,1,.446.774A2.82,2.82,0,0,1,284.472,215.562Zm-1.191-4.465h-5.027a.447.447,0,1,1,0-.893h5.027a.447.447,0,0,1,0,.893Zm-.05-1.786h-4.978a.447.447,0,1,1,0-.893h4.978a.447.447,0,1,1,0,.893Zm-.1-1.786h-4.879a.447.447,0,1,1,0-.893h4.879a.447.447,0,1,1,0,.893Zm-1.637-1.786h-3.241a.447.447,0,1,1,0-.893H281.5a.447.447,0,1,1,0,.893Z" transform="translate(-274.5 -200.381)"/>
      </g>
      <g transform="translate(284.162 208.469)">
        <path d="M312.851,233.891a.445.445,0,0,1-.316-.131l-1.113-1.113a2.816,2.816,0,1,1,.631-.632l1.113,1.113a.447.447,0,0,1-.316.762Zm-3.078-5.446a1.921,1.921,0,1,0,1.359.563A1.909,1.909,0,0,0,309.773,228.445Z" transform="translate(-306.96 -227.552)"/>
      </g>
    </g>
    <path d="M5,9.6A5.4,5.4,0,0,1,1.44,8.2,5.206,5.206,0,0,1,0,4.309C0,1.019,3.285.053,5.022,0h6.924a4.707,4.707,0,0,1,3.122,1.057A3.1,3.1,0,0,1,16,3.4a2.964,2.964,0,0,1-.9,2.224A5.6,5.6,0,0,1,11.429,6.8h-5.9a.58.58,0,0,1-.115-.011c-.73-.143-1.965-.7-1.965-1.866,0-1.367,1.684-2.018,1.876-2.087a.594.594,0,0,1,.2-.036H11.8a.6.6,0,0,1,0,1.2H5.648c-.365.156-1,.539-1,.923,0,.354.647.605.945.677h5.855a4.477,4.477,0,0,0,2.814-.844A1.784,1.784,0,0,0,14.8,3.4a1.927,1.927,0,0,0-.556-1.472A3.537,3.537,0,0,0,11.973,1.2H5.04c-.139,0-3.84.161-3.84,3.107A4.064,4.064,0,0,0,2.277,7.343,4.221,4.221,0,0,0,5.024,8.4H13a.6.6,0,1,1,0,1.2H5Z" transform="translate(2.163 95.881) rotate(-68)"/>
    <g transform="translate(-792.029 -893.716)">
      <text transform="translate(816.869 988)" font-size="16" font-family="SegoeUI, Segoe UI">
        <tspan x="0" y="0">A</tspan>
      </text>
      <line x2="11.059" transform="translate(816.5 990.063)" fill="none" stroke="#000" stroke-width="1"/>
    </g>
    <path d="M116.6,287.823v3.889l-5.756-5.832,5.756-5.933v3.6s4.012-.15,6.429,2.541a6.3,6.3,0,0,1,1.778,5.041A10.4,10.4,0,0,0,116.6,287.823Z" transform="translate(-67.967 -196.108)" fill="none" stroke="#000" stroke-linecap="round" stroke-linejoin="round" stroke-width="1"/>
    <path d="M-110.209,735.712a.37.37,0,0,1-.129-.023.372.372,0,0,1-.243-.349v-3.128h-10.046a.372.372,0,0,1-.372-.372v-4.279a.372.372,0,0,1,.372-.372h10.046v-3.128a.372.372,0,0,1,.243-.349.372.372,0,0,1,.412.107l4.837,5.639a.372.372,0,0,1,0,.484l-4.837,5.639A.372.372,0,0,1-110.209,735.712Zm-10.046-4.244h10.046a.372.372,0,0,1,.372.372v2.495l3.975-4.634-3.975-4.634v2.494a.372.372,0,0,1-.372.372h-10.046Z" transform="translate(183 -638.85)" stroke="#000" stroke-width="0.2"/>
    <path d="M414.454,248.219a.936.936,0,0,0-.765-.643l-4.729-.676-2.113-4.209a.948.948,0,0,0-1.692,0L403.04,246.9l-4.729.676a.937.937,0,0,0-.766.643.927.927,0,0,0,.244.959l3.417,3.274-.806,4.62a.929.929,0,0,0,.368.913.945.945,0,0,0,1,.078L406,255.878l4.233,2.187a.945.945,0,0,0,1-.079.928.928,0,0,0,.368-.913l-.806-4.62,3.417-3.274A.928.928,0,0,0,414.454,248.219Z" transform="translate(-295.752 -160.437)" stroke="#000" stroke-width="0.5"/>
    <g transform="translate(-275.168 -160.437)" fill="none">
      <path d="M414.454,248.219a.936.936,0,0,0-.765-.643l-4.729-.676-2.113-4.209a.948.948,0,0,0-1.692,0L403.04,246.9l-4.729.676a.937.937,0,0,0-.766.643.927.927,0,0,0,.244.959l3.417,3.274-.806,4.62a.929.929,0,0,0,.368.913.945.945,0,0,0,1,.078L406,255.878l4.233,2.187a.945.945,0,0,0,1-.079.928.928,0,0,0,.368-.913l-.806-4.62,3.417-3.274A.928.928,0,0,0,414.454,248.219Z" stroke="none"/>
      <path d="M 405.9996337890625 243.2353210449219 L 403.9336547851563 247.3496398925781 L 403.6990051269531 247.81689453125 L 403.1814270019531 247.8908386230469 L 398.5766296386719 248.5486907958984 L 401.8975524902344 251.730712890625 L 402.2824401855469 252.0994873046875 L 402.1908569335938 252.6245880126953 L 401.4056396484375 257.126220703125 L 405.5404663085938 254.9895629882813 L 405.99951171875 254.7523651123047 L 406.4585876464844 254.9895629882813 L 410.5934753417969 257.1260375976563 L 409.8082885742188 252.6245880126953 L 409.7167053222656 252.0994567871094 L 410.1016235351563 251.7306671142578 L 413.4229125976563 248.5487060546875 L 408.8177490234375 247.8908386230469 L 408.3001098632813 247.81689453125 L 408.0654907226563 247.3496246337891 L 405.9996337890625 243.2353210449219 M 405.9995422363281 242.1720275878906 C 406.3606262207031 242.1720275878906 406.6849365234375 242.3716735839844 406.845947265625 242.6922912597656 L 408.9591674804688 246.9008941650391 L 413.6886596679688 247.5765228271484 C 414.0500183105469 247.6281890869141 414.3433837890625 247.8745269775391 414.4541320800781 248.2191467285156 C 414.5640258789063 248.5615234375 414.4710083007813 248.9291381835938 414.210693359375 249.1788482666016 L 410.7934265136719 252.4527587890625 L 411.599365234375 257.0732421875 C 411.6611328125 257.4239501953125 411.5201110839844 257.7739562988281 411.2317810058594 257.9862670898438 C 411.0640563964844 258.1092834472656 410.8674621582031 258.1719665527344 410.6694030761719 258.1719665527344 C 410.5205383300781 258.1719665527344 410.3708190917969 258.1366271972656 410.2321166992188 258.06494140625 L 405.9995422363281 255.8779754638672 L 401.767333984375 258.06494140625 C 401.6285095214844 258.1366271972656 401.4787292480469 258.1719970703125 401.3297729492188 258.1719970703125 C 401.1318054199219 258.1719970703125 400.9352722167969 258.1094970703125 400.7680969238281 257.9866027832031 C 400.4793701171875 257.7745971679688 400.3384094238281 257.4246520996094 400.3997802734375 257.0732421875 L 401.2057189941406 252.4527587890625 L 397.7888793945313 249.1788482666016 C 397.5281677246094 248.9291381835938 397.4351501464844 248.5615234375 397.5450744628906 248.2195129394531 C 397.6561889648438 247.8745269775391 397.949462890625 247.6281890869141 398.310791015625 247.5765228271484 L 403.0399780273438 246.9008941650391 L 405.1536560058594 242.6916198730469 C 405.314208984375 242.3716735839844 405.6385192871094 242.1720275878906 405.9995422363281 242.1720275878906 Z" stroke="none" fill="#000"/>
    </g>
    <g transform="translate(-122.048 14.906)">
      <path d="M272,67h0a8,8,0,0,0,0,16h0a8,8,0,0,0,0-16Zm6.864,5.066h-3.538a10.426,10.426,0,0,0-.858-2.133h3.009a7.489,7.489,0,0,1,1.387,2.133ZM272,67.62a9.285,9.285,0,0,1,1.529,1.779h-3.057A9.274,9.274,0,0,1,272,67.62ZM269.833,69.4h-2.761a7.434,7.434,0,0,1,4.207-1.831,9.952,9.952,0,0,0-1.445,1.831Zm2.889-1.831a7.434,7.434,0,0,1,4.21,1.831h-2.764a9.952,9.952,0,0,0-1.446-1.831Zm1.137,2.364a9.9,9.9,0,0,1,.92,2.133h-5.555a9.869,9.869,0,0,1,.918-2.133Zm-7.334,0h3.006a10.4,10.4,0,0,0-.856,2.133h-3.538a7.49,7.49,0,0,1,1.387-2.133Zm-1.59,2.666h14.135a7.437,7.437,0,0,1,0,4.8H264.934a7.434,7.434,0,0,1,0-4.8ZM272,82.377a9.272,9.272,0,0,1-1.528-1.78h3.057A9.281,9.281,0,0,1,272,82.377Zm2.168-1.78h2.764a7.434,7.434,0,0,1-4.212,1.831,9.955,9.955,0,0,0,1.448-1.831Zm-2.889,1.831a7.434,7.434,0,0,1-4.207-1.831h2.761a9.954,9.954,0,0,0,1.445,1.831Zm-1.137-2.364a9.866,9.866,0,0,1-.918-2.133h5.555a9.9,9.9,0,0,1-.92,2.133Zm-5-2.133h3.538a10.4,10.4,0,0,0,.856,2.133h-3.006a7.487,7.487,0,0,1-1.387-2.133Zm12.341,2.133H274.47a10.42,10.42,0,0,0,.858-2.133h3.538a7.487,7.487,0,0,1-1.387,2.133Zm0,0" transform="translate(0)" fill="#1d1d1d" stroke="#1d1d1d" stroke-width="0.3"/>
      <path d="M305.107,259.936a.267.267,0,0,0,.254.2h0a.267.267,0,0,0,.255-.19l.544-1.815.544,1.815a.267.267,0,0,0,.255.19h0a.266.266,0,0,0,.254-.2l.8-2.933-.515-.14-.555,2.034-.533-1.774a.267.267,0,0,0-.511,0l-.533,1.774-.555-2.034-.515.14Zm0,0" transform="translate(-38.961 -183.534)" fill="#1d1d1d" stroke="#1d1d1d" stroke-width="0.3"/>
      <path d="M449.333,260.132h0a.267.267,0,0,0,.255-.19l.544-1.815.544,1.815a.267.267,0,0,0,.255.19h0a.267.267,0,0,0,.254-.2l.8-2.933-.515-.14-.555,2.034-.533-1.774a.267.267,0,0,0-.511,0l-.533,1.774-.555-2.034-.515.14.8,2.933a.267.267,0,0,0,.256.2Zm0,0" transform="translate(-178.134 -183.534)" fill="#1d1d1d" stroke="#1d1d1d" stroke-width="0.3"/>
      <path d="M593.3,260.132h0a.267.267,0,0,0,.255-.19l.544-1.815.545,1.815a.266.266,0,0,0,.255.19h0a.267.267,0,0,0,.254-.2l.8-2.933-.515-.14-.555,2.034-.533-1.774a.267.267,0,0,0-.511,0l-.533,1.774-.555-2.034-.515.14.8,2.933a.267.267,0,0,0,.256.2Zm0,0" transform="translate(-317.304 -183.534)" fill="#1d1d1d" stroke="#1d1d1d" stroke-width="0.3"/>
    </g>
    <path d="M750.881,252.99a.544.544,0,0,0,.769.769l5.8-5.786,5.6,5.786a.544.544,0,0,0,.769-.769l-6.367-6.468Z" transform="translate(-587.003 -160.387)" stroke="#000" stroke-linecap="round" stroke-linejoin="round" stroke-width="0.5"/>
    <path d="M750.881,247.45a.544.544,0,1,1,.769-.769l5.8,5.786,5.6-5.786a.544.544,0,1,1,.769.769l-6.367,6.468Z" transform="translate(-567.003 -159.387)" stroke="#000" stroke-linecap="round" stroke-linejoin="round" stroke-width="0.5"/>
    <g transform="translate(-400 -1196)">
      <path d="M536.909,1261.091m0,0v10.182H523.091v-10.182M536.909,1260H523.091a1.091,1.091,0,0,0-1.091,1.091v10.182a1.091,1.091,0,0,0,1.091,1.091h13.818a1.091,1.091,0,0,0,1.091-1.091v-10.182a1.091,1.091,0,0,0-1.091-1.091Z" transform="translate(0 0)"/>
      <path d="M530.291,1272.045a.547.547,0,0,1-.328-.11l-7.245-5.455a.545.545,0,1,1,.656-.871l6.919,5.208,6.972-5.209a.545.545,0,1,1,.653.873l-7.3,5.454A.544.544,0,0,1,530.291,1272.045Z" transform="translate(-0.318 -3.5)"/>
      <path d="M553.773,1282.318a.544.544,0,0,1-.386-.16l-4.727-4.727a.546.546,0,0,1,.772-.772l4.913,4.913C554.376,1282.07,554.074,1282.318,553.773,1282.318Z" transform="translate(-16.864 -10.5)"/>
      <path d="M524,1282.318c-.3,0-.6-.248-.572-.745l4.913-4.913a.546.546,0,0,1,.772.772l-4.727,4.727A.544.544,0,0,1,524,1282.318Z" transform="translate(-0.905 -10.5)"/>
    </g>
    <g transform="translate(-167 -65)">
      <g transform="translate(309 128)">
        <g transform="translate(0 0)" clip-path="url(#a)">
          <path d="M321.426,127.921h-7.283v6.831h-3.252l1.132-1.132-.7-.7L309,135.246l2.324,2.324.7-.7-1.132-1.132h3.252v6.831h10.864V131.5Zm.289,1.686,1.606,1.606h-1.606Zm-6.584,11.977V135.74h4.444v-.988H315.13v-5.844h5.6V132.2h3.292v9.383Zm0,0" transform="translate(-309 -127.924)"/>
        </g>
      </g>
    </g>
    <g transform="translate(-156 -65)">
      <path d="M329.759,128h-7.3v6.85H318v.99h4.457v6.85H333.35v-11.1Zm.29,1.691,1.611,1.611h-1.611Zm-6.6,12.009V135.84h3.261l-1.135,1.135.7.7,2.331-2.331-2.331-2.331-.7.7,1.135,1.135h-3.261v-5.86h5.612v3.3h3.3V141.7Zm0,0" transform="translate(0 0)"/>
    </g>
    <g transform="translate(-71.658 -143.632)">
      <g transform="translate(257.588 205.632)">
        <path d="M265.244,218.919a.534.534,0,0,1-.53-.6l.326-2.778a.535.535,0,0,1,.152-.314l7.687-7.711.756.753-7.557,7.58-.227,1.932,1.951-.2L275.357,210l.756.753-7.688,7.711a.534.534,0,0,1-.322.154l-2.8.294Z" transform="translate(-264.711 -206.849)"/>
        <rect width="1.067" height="3.539" transform="translate(6.909 2.645) rotate(-44.917)"/>
        <path d="M290.92,209.54l-.756-.753a1.23,1.23,0,0,0,0-1.732,1.245,1.245,0,0,0-1.722,0l-.756-.753a2.282,2.282,0,0,1,3.233,0A2.3,2.3,0,0,1,290.92,209.54Z" transform="translate(-279.518 -205.632)"/>
      </g>
      <path d="M265.2,224.481h-8.646a2.9,2.9,0,0,1-2.891-2.891v-8.646a2.894,2.894,0,0,1,2.891-2.891h5.894v1.067h-5.894a1.826,1.826,0,0,0-1.825,1.824v8.646a1.827,1.827,0,0,0,1.825,1.825H265.2a1.826,1.826,0,0,0,1.824-1.825v-5.895h1.067v5.895A2.894,2.894,0,0,1,265.2,224.481Z" transform="translate(0 -2.849)"/>
    </g>
    <g transform="translate(-400.641 -42.797)">
      <g transform="translate(403.641 145.797)">
        <path d="M414.62,159.8h-8.782a2.2,2.2,0,0,1-2.2-2.2v-9.606a2.2,2.2,0,0,1,2.2-2.2h8.782a2.2,2.2,0,0,1,2.2,2.2V157.6A2.2,2.2,0,0,1,414.62,159.8Zm-8.782-13.176a1.375,1.375,0,0,0-1.374,1.374V157.6a1.375,1.375,0,0,0,1.374,1.373h8.782a1.375,1.375,0,0,0,1.374-1.373v-9.606a1.375,1.375,0,0,0-1.374-1.374Z" transform="translate(-403.641 -145.797)" fill="#1d1d1d"/>
      </g>
      <path d="M413.089,153.76a1.236,1.236,0,1,1-.971-.971A1.237,1.237,0,0,1,413.089,153.76Z" transform="translate(-4.118 -4.1)" fill="#1d1d1d"/>
      <path d="M416.845,162.828l-3.475-3.471a.206.206,0,0,0-.291,0l-4.384,4.384L405.959,161a.206.206,0,0,0-.29,0l-1.466,1.451a.207.207,0,0,0-.061.146v2.941a1.993,1.993,0,0,0,1.991,1.991h8.782a1.993,1.993,0,0,0,1.991-1.991v-2.568A.207.207,0,0,0,416.845,162.828Z" transform="translate(-0.294 -7.941)" fill="#1d1d1d"/>
    </g>
    <path d="M12043,2646a7,7,0,1,1,7-7A7.008,7.008,0,0,1,12043,2646Zm-2.142-9.791a.508.508,0,0,0-.359.866l1.787,1.784-1.926,1.927a.508.508,0,0,0,0,.717.5.5,0,0,0,.356.151.51.51,0,0,0,.36-.151l1.926-1.927,1.927,1.927a.5.5,0,0,0,.356.15.508.508,0,0,0,.36-.866l-1.927-1.927,1.784-1.784a.507.507,0,0,0,.15-.361.512.512,0,0,0-.507-.505.511.511,0,0,0-.36.15l-1.784,1.784-1.787-1.784A.5.5,0,0,0,12040.857,2636.209Z" transform="translate(-12013 -2529)"/>
    <path d="M12043,2646a7,7,0,1,1,7-7A7.008,7.008,0,0,1,12043,2646Zm-2.792-7.263a.5.5,0,0,0-.5.5.5.5,0,0,0,.147.357l1.767,1.766a.5.5,0,0,0,.708,0l4.242-4.243a.5.5,0,1,0-.707-.7l-3.89,3.886-1.412-1.412A.5.5,0,0,0,12040.207,2638.737Z" transform="translate(-11993 -2529)"/>
    <g transform="translate(-351.782 -361.848)">
      <path d="M12389.881,3009.775a.636.636,0,0,1-.63-.555l-1.432-11.659a.313.313,0,0,1,.063-.233.319.319,0,0,1,.213-.121l.775-.084.622-.072.448-.05,1.1-.124v9.672a.336.336,0,0,0,.336.336h8.309l.126,1.036a.635.635,0,0,1-.551.709l-9.3,1.139A.6.6,0,0,1,12389.881,3009.775Z" transform="translate(-11972.732 -2529.848)" fill="none" stroke="#1d1d1d" stroke-linecap="round" stroke-miterlimit="10" stroke-width="0.6"/>
      <path d="M12389.545,3008.711a.535.535,0,0,1-.525-.47l-1.2-9.784a.3.3,0,0,1,.258-.33l.955-.115.934-.1v8.64a.335.335,0,0,0,.333.336h7.466l.034.28a.535.535,0,0,1-.108.4.52.52,0,0,1-.349.2l-7.733.949A.549.549,0,0,1,12389.545,3008.711Z" transform="translate(-11971.659 -2529.848)" fill="rgba(0,0,0,0.4)" stroke="rgba(0,0,0,0)" stroke-width="1"/>
      <g transform="translate(418.006 464)" fill="none" stroke-miterlimit="10">
        <path d="M0,.635A.635.635,0,0,1,.635,0H7.867a.635.635,0,0,1,.449.186L10.45,2.319a.635.635,0,0,1,.186.449V12.7a.635.635,0,0,1-.635.635H.635A.635.635,0,0,1,0,12.7Z" stroke="none"/>
        <path d="M 0.635014533996582 0.6000022888183594 C 0.6157045364379883 0.6000022888183594 0.5999946594238281 0.6157121658325195 0.5999946594238281 0.6350126266479492 L 0.5999946594238281 12.70029258728027 C 0.5999946594238281 12.7195930480957 0.6157045364379883 12.73530292510986 0.635014533996582 12.73530292510986 L 10.00141525268555 12.73530292510986 C 10.02071475982666 12.73530292510986 10.03642463684082 12.7195930480957 10.03642463684082 12.70029258728027 L 10.03642463684082 2.767852783203125 C 10.03642463684082 2.758492469787598 10.0327844619751 2.749692916870117 10.02617454528809 2.74309253692627 L 7.89200496673584 0.6102428436279297 C 7.885395050048828 0.603642463684082 7.876614570617676 0.6000022888183594 7.867264747619629 0.6000022888183594 L 0.635014533996582 0.6000022888183594 M 0.635014533996582 2.86102294921875e-06 L 7.867264747619629 2.86102294921875e-06 C 8.035614967346191 2.86102294921875e-06 8.197074890136719 0.06685256958007813 8.316144943237305 0.1858530044555664 L 10.45030498504639 2.318692207336426 C 10.5694751739502 2.437792778015137 10.63642501831055 2.599372863769531 10.63642501831055 2.767852783203125 L 10.63642501831055 12.70029258728027 C 10.63642501831055 13.05100250244141 10.35212516784668 13.33530235290527 10.00141525268555 13.33530235290527 L 0.635014533996582 13.33530235290527 C 0.2843046188354492 13.33530235290527 -4.76837158203125e-06 13.05100250244141 -4.76837158203125e-06 12.70029258728027 L -4.76837158203125e-06 0.6350126266479492 C -4.76837158203125e-06 0.2843027114868164 0.2843046188354492 2.86102294921875e-06 0.635014533996582 2.86102294921875e-06 Z" stroke="none" fill="#1d1d1d"/>
      </g>
      <path d="M419.68,467.029h3.534" transform="translate(0 -0.18)" fill="none" stroke="#1d1d1d" stroke-linecap="round" stroke-width="0.6"/>
      <path d="M419.68,467.029H426.8" transform="translate(0 1.82)" fill="none" stroke="#1d1d1d" stroke-linecap="round" stroke-width="0.6"/>
      <path d="M419.68,467.029H426.8" transform="translate(0 3.82)" fill="none" stroke="#1d1d1d" stroke-linecap="round" stroke-width="0.6"/>
      <path d="M419.68,467.029H426.8" transform="translate(0 5.82)" fill="none" stroke="#1d1d1d" stroke-linecap="round" stroke-width="0.6"/>
      <path d="M419.68,467.029h4.581" transform="translate(0 7.82)" fill="none" stroke="#1d1d1d" stroke-linecap="round" stroke-width="0.6"/>
    </g>
    <rect width="20" height="20" transform="translate(80 100)" fill="none"/>
    <g transform="translate(-20)">
      <g transform="translate(142 102)">
        <path d="M-847.062-851.406c1.995,0,3.32-2.583,3.514-3.238.014-.047.313-.2.338-.238,1.08-1.86-.1-2.072-.1-2.072a6.821,6.821,0,0,0-.2-1.9,3.471,3.471,0,0,0-3.556-2.286,3.472,3.472,0,0,0-3.556,2.286,6.813,6.813,0,0,0-.2,1.9s-1.18.212-.1,2.072c.025.043.323.191.337.238C-850.383-853.99-849.057-851.406-847.062-851.406Z" transform="translate(855.063 861.141)"/>
        <path d="M-851-836.98a5.866,5.866,0,0,0,2.208,1.179,4.94,4.94,0,0,1,3.961,4.947,43.069,43.069,0,0,1-8,.7,43.064,43.064,0,0,1-8-.7,4.94,4.94,0,0,1,3.961-4.947,5.87,5.87,0,0,0,2.208-1.179" transform="translate(860.833 846.159)"/>
      </g>
      <rect width="20" height="20" transform="translate(140 100)" fill="none"/>
    </g>
    <g transform="translate(-20)">
      <rect width="20" height="20" transform="translate(160 100)" fill="none"/>
      <g transform="translate(868 2735) rotate(90)">
        <g transform="translate(-2630.333 690.667)">
          <g transform="translate(0 0)">
            <path d="M9.333,3V1L6.667,3.667,9.333,6.333v-2a4,4,0,0,1,4,4,3.914,3.914,0,0,1-.467,1.867l.973.973A5.324,5.324,0,0,0,9.333,3Zm0,9.333a4,4,0,0,1-4-4A3.914,3.914,0,0,1,5.8,6.467l-.973-.973a5.324,5.324,0,0,0,4.507,8.173v2L12,13,9.333,10.333Z" transform="translate(-4 -1)" fill="#111"/>
          </g>
        </g>
        <rect width="16" height="16" transform="translate(-2633 690)" fill="none"/>
      </g>
    </g>
    <g transform="translate(146 102)">
      <g transform="translate(-922.138 -285.691)">
        <path d="M949.585,291.417h-.533v-1.065a2.66,2.66,0,1,0-5.32,0v1.065H943.2a1.065,1.065,0,0,0-1.065,1.062v5.32a1.068,1.068,0,0,0,1.065,1.065h6.382a1.07,1.07,0,0,0,1.066-1.065v-5.32a1.067,1.067,0,0,0-1.066-1.062Zm-3.192,4.787a1.064,1.064,0,1,1,1.065-1.065,1.068,1.068,0,0,1-1.065,1.065Zm1.65-4.787h-3.3v-1.065a1.648,1.648,0,1,1,3.3,0Zm0,0" transform="translate(0 0)"/>
      </g>
      <rect width="16" height="16" transform="translate(16)" fill="none"/>
    </g>
    <g transform="translate(3329 -147)">
      <g transform="translate(-3147 249)">
        <path d="M9.2,7.6h1.6V6H9.2Zm0,6.4h1.6V9.2H9.2Zm.792,4A8,8,0,1,1,18,10,8,8,0,0,1,9.992,18ZM10,3.6A6.4,6.4,0,1,0,16.4,10,6.4,6.4,0,0,0,10,3.6Z" transform="translate(-2 -2)" fill="#111"/>
      </g>
    </g>
    <g transform="translate(180)">
      <rect width="20" height="20" fill="none"/>
    </g>
    <g transform="translate(180)">
      <line x2="12" y2="12" transform="translate(4 4)" fill="none" stroke="#000" stroke-linecap="round" stroke-width="1.5"/>
      <line x1="12" y2="12" transform="translate(4 4)" fill="none" stroke="#000" stroke-linecap="round" stroke-width="1.5"/>
      <rect width="14" height="14" transform="translate(3 3)" fill="none"/>
      <rect width="20" height="20" fill="none"/>
    </g>
    <g transform="translate(80 100)">
      <path d="M4.227,17A1.2,1.2,0,0,1,3,15.78L3.04,12.8a1.2,1.2,0,0,1,.353-.835l8.214-8.214a2.587,2.587,0,0,1,3.649,0l.973.973a2.584,2.584,0,0,1,0,3.648L8.012,16.591a1.2,1.2,0,0,1-.828.352L4.226,17ZM13.365,4a1.537,1.537,0,0,0-1.1.451L4.051,12.665,4,12.786l-.04,2.976a.171.171,0,0,0,.049.123.169.169,0,0,0,.122.051l2.962-.057.117-.05,8.217-8.217a1.551,1.551,0,0,0,0-2.189l-.974-.972A1.54,1.54,0,0,0,13.36,4Z"/>
      <path d="M14,10.286a.517.517,0,0,1-.354-.141L9.892,6.606a.516.516,0,1,1,.708-.751h0l3.754,3.539a.516.516,0,0,1-.354.891Z"/>
      <rect width="14" height="14" transform="translate(3 3)" fill="none"/>
      <rect width="20" height="20" fill="none"/>
    </g>
    <g transform="translate(100 100)">
      <path d="M8.5,15.5" fill="none" stroke="#000" stroke-width="1"/>
      <path d="M7,7.5H5.435A1.8,1.8,0,0,0,3.5,9.112v6.776A1.8,1.8,0,0,0,5.435,17.5h5.13A1.8,1.8,0,0,0,12.5,15.888V15" fill="none" stroke="#000" stroke-width="1"/>
      <rect width="13" height="15" transform="translate(3 3)" fill="none"/>
      <rect width="20" height="20" fill="none"/>
      <path d="M12.5,5.905V3.958A.48.48,0,0,0,12,3.5H7.8A1.248,1.248,0,0,0,6.5,4.69v8.62A1.248,1.248,0,0,0,7.8,14.5h6.4a1.233,1.233,0,0,0,1.3-1.154v-6.4A.475.475,0,0,0,15,6.5H13.17A.636.636,0,0,1,12.5,5.905Z" fill="none" stroke="#000" stroke-width="1"/>
      <line x2="3" y2="3.125" transform="translate(12.5 3.5)" fill="none" stroke="#000" stroke-linecap="round" stroke-width="1"/>
    </g>
    <circle cx="5" cy="5" r="5" transform="translate(5 125)"/>
    <rect width="20" height="20" transform="translate(0 120)" fill="none"/>
    <rect width="20" height="20" transform="translate(20 120)" fill="none"/>
    <g transform="translate(22.001 122.5)">
      <path d="M12.5.5,6.4,6.577A4.3,4.3,0,0,0,1,10.982a4.186,4.186,0,0,0,2.139,3.452A4.289,4.289,0,0,0,9.424,9.607L10.5,8.5v-2h2v-2H14L15.5,3V.5Z" fill="none" stroke="#ff6767" stroke-linecap="square" stroke-linejoin="round" stroke-width="1"/>
      <circle cx="1.448" cy="1.448" r="1.448" transform="translate(4.033 9.188)" fill="none" stroke="#ff6767" stroke-linecap="square" stroke-linejoin="round" stroke-width="1"/>
    </g>
    <g transform="translate(164 24)">
      <rect width="20" height="20" transform="translate(16 16)" fill="none" opacity="0"/>
      <g transform="translate(95.333 38.5)">
        <path d="M-64.333-13.5V-6a.5.5,0,0,1-.5.5h-8a.5.5,0,0,1-.5-.5v-7.5" fill="none" stroke="#212121" stroke-linecap="round" stroke-miterlimit="10" stroke-width="1"/>
        <line x2="13" transform="translate(-75.333 -16.5)" fill="none" stroke="#212121" stroke-linecap="round" stroke-miterlimit="10" stroke-width="1"/>
        <line y2="4" transform="translate(-69.333 -12.5)" fill="none" stroke="#212121" stroke-linecap="round" stroke-miterlimit="10" stroke-width="1"/>
        <path d="M-71.833-9" fill="none" stroke="#212121" stroke-linecap="round" stroke-miterlimit="10" stroke-width="1"/>
        <path d="M-71.833-13" fill="none" stroke="#212121" stroke-linecap="round" stroke-miterlimit="10" stroke-width="1"/>
        <path d="M-67.833-9" fill="none" stroke="#212121" stroke-linecap="round" stroke-miterlimit="10" stroke-width="1"/>
        <path d="M-67.833-13" fill="none" stroke="#212121" stroke-linecap="round" stroke-miterlimit="10" stroke-width="1"/>
        <path d="M-71.333-16.5v-2h5v2" fill="none" stroke="#212121" stroke-linecap="round" stroke-miterlimit="10" stroke-width="1"/>
      </g>
    </g>
    <g transform="translate(-2205 5)">
      <g transform="translate(1351.327 -285.429)">
        <path d="M857.9,337.429a1.208,1.208,0,0,1-.88-.358,1.2,1.2,0,0,1-.347-.862l.04-2.977a1.2,1.2,0,0,1,.353-.835l8.214-8.214a2.586,2.586,0,0,1,3.649,0l.973.973a2.583,2.583,0,0,1,0,3.648l-8.217,8.216a1.2,1.2,0,0,1-.828.352l-2.958.057Zm9.205-12.968a1.539,1.539,0,0,0-1.1.451l-8.214,8.214a.17.17,0,0,0-.051.119l-.04,2.978a.168.168,0,0,0,.049.123.171.171,0,0,0,.122.051l2.961-.057a.172.172,0,0,0,.118-.05l8.217-8.217a1.55,1.55,0,0,0,0-2.189l-.974-.972A1.537,1.537,0,0,0,867.1,324.461Z" transform="translate(0 0)" fill="#1d1d1d"/>
        <path d="M881.77,333.952a.514.514,0,0,1-.354-.141l-3.754-3.539a.516.516,0,1,1,.708-.751l3.754,3.539a.516.516,0,0,1-.354.891Z" transform="translate(-13.663 -3.904)" fill="#1d1d1d"/>
      </g>
      <rect width="20" height="20" transform="translate(2205 35)" fill="none"/>
    </g>
    <g transform="translate(-1998 51)">
      <g transform="translate(1996 -109)">
        <line y1="10" transform="translate(66.5 81.5)" fill="none" stroke="#000" stroke-linecap="round" stroke-miterlimit="10" stroke-width="1"/>
        <line x1="8" transform="translate(66.5 81.5)" fill="none" stroke="#000" stroke-linecap="round" stroke-miterlimit="10" stroke-width="1"/>
        <rect width="9" height="11" rx="0.51" transform="translate(68.5 83.5)" fill="none" stroke="#000" stroke-miterlimit="10" stroke-width="1"/>
        <rect width="12" height="14" transform="translate(66 81)" fill="none"/>
        <rect width="20" height="20" transform="translate(62 78)" fill="none"/>
      </g>
    </g>
    <g transform="translate(-1986 60)">
      <g transform="translate(2 2)">
        <path d="M1.5,1.5v13h13V5.036L10.964,1.5Z" transform="translate(2146 -40)" fill="none" stroke="#000" stroke-linejoin="round" stroke-width="1"/>
        <path d="M0,0H7A0,0,0,0,1,7,0V3A1,1,0,0,1,6,4H1A1,1,0,0,1,0,3V0A0,0,0,0,1,0,0Z" transform="translate(2149.5 -38.5)" fill="none" stroke="#000" stroke-miterlimit="10" stroke-width="1"/>
        <line y2="1" transform="translate(2151.5 -38)" fill="none" stroke="#000" stroke-linecap="round" stroke-miterlimit="10" stroke-width="1"/>
        <circle cx="2" cy="2" r="2" transform="translate(2151.5 -31.5)" fill="none" stroke="#000" stroke-linecap="round" stroke-miterlimit="10" stroke-width="1"/>
        <rect width="14" height="14" transform="translate(2147 -39)" fill="none"/>
      </g>
      <rect width="20" height="20" transform="translate(2146 -40)" fill="none"/>
    </g>
    <g transform="translate(162 2)">
      <rect width="16" height="16" fill="none"/>
      <path d="M10.724,10.475a5.369,5.369,0,0,0,1.5-3.706,5.612,5.612,0,1,0-5.767,5.453l.155,0a5.73,5.73,0,0,0,3.36-1.081l4.173,4.052a.509.509,0,0,0,.356.149.5.5,0,0,0,.356-.85ZM2.014,6.769a4.6,4.6,0,1,1,4.72,4.472l-.124,0A4.539,4.539,0,0,1,2.014,6.769Z" fill="#8295b8" fill-rule="evenodd"/>
    </g>
    <g transform="translate(40 120)">
      <circle cx="8" cy="8" r="8" transform="translate(2 2)" fill="none" stroke="#303030" stroke-miterlimit="10" stroke-width="1"/>
      <path d="M9.391,11.641v-.708a1.332,1.332,0,0,1,.252-.841,4.578,4.578,0,0,1,.767-.732,7.12,7.12,0,0,0,.552-.474,1.722,1.722,0,0,0,.343-.474,1.44,1.44,0,0,0,.137-.648,1.276,1.276,0,0,0-.383-.966,1.425,1.425,0,0,0-1.021-.365A1.445,1.445,0,0,0,9,6.8a1.282,1.282,0,0,0-.39.972v.372a.106.106,0,0,1-.12.121l-.612-.037a.105.105,0,0,1-.119-.12V7.776A1.993,1.993,0,0,1,8.4,6.24a2.361,2.361,0,0,1,1.668-.588,2.267,2.267,0,0,1,1.62.577,2.009,2.009,0,0,1,.611,1.535,2.2,2.2,0,0,1-.174.912,2.068,2.068,0,0,1-.414.624,7.33,7.33,0,0,1-.636.553,4.086,4.086,0,0,0-.612.551.86.86,0,0,0-.2.576v.661a.105.105,0,0,1-.119.119H9.511A.105.105,0,0,1,9.391,11.641Zm-.061,2.3a.7.7,0,0,1,0-.965.669.669,0,0,1,1.152.485.679.679,0,0,1-1.152.48Z"/>
    </g>
    <rect width="20" height="20" transform="translate(40 120)" fill="none"/>
    <g transform="translate(-536 -143)">
      <path d="M32,10.01c0-.382,0-.764,0-1.147,0-.322-.006-.644-.014-.965A14.034,14.034,0,0,0,31.8,5.8a7.079,7.079,0,0,0-.659-2A6.72,6.72,0,0,0,28.2.86,7.088,7.088,0,0,0,26.2.2,14.047,14.047,0,0,0,24.1.017C23.78.008,23.459,0,23.137,0c-.382,0-.764,0-1.147,0H10.01c-.382,0-.764,0-1.146,0C8.542,0,8.22.008,7.9.017A14.041,14.041,0,0,0,5.8.2,7.088,7.088,0,0,0,3.8.86,6.72,6.72,0,0,0,.86,3.8,7.079,7.079,0,0,0,.2,5.8,14.033,14.033,0,0,0,.017,7.9Q0,8.381,0,8.863c0,.382,0,.764,0,1.147V21.99c0,.382,0,.764,0,1.147q0,.482.014.965A14.033,14.033,0,0,0,.2,26.2a7.082,7.082,0,0,0,.659,2A6.73,6.73,0,0,0,3.8,31.14a7.088,7.088,0,0,0,2,.658,14.042,14.042,0,0,0,2.1.185c.322.009.644.012.966.014.382,0,.764,0,1.146,0H21.99c.382,0,.765,0,1.147,0,.322,0,.644-.006.966-.014a14.048,14.048,0,0,0,2.1-.185,7.088,7.088,0,0,0,2-.658A6.73,6.73,0,0,0,31.14,28.2a7.082,7.082,0,0,0,.659-2,14.034,14.034,0,0,0,.185-2.1c.009-.322.012-.644.014-.965,0-.382,0-.764,0-1.147Z" transform="translate(536 283)" fill="url(#b)"/>
      <g transform="matrix(1, 0, 0, 1, 536, 143)" filter="url(#c)">
        <path d="M38.153,23.439h-.02a6.922,6.922,0,0,0,1.242-7.279A6.669,6.669,0,0,0,33.148,12h-.193A6.961,6.961,0,0,0,26,18.967v4.472h.02v4.472a6.961,6.961,0,0,0,6.955,6.967h.193a6.669,6.669,0,0,0,6.227-4.161A6.921,6.921,0,0,0,38.153,23.439Zm-7.871-3.75a3.021,3.021,0,0,1,.81-2.105,2.46,2.46,0,0,1,4.32,1.219,2.286,2.286,0,0,1-2.275,2.491H30.306c-.013,0-.024-.009-.024-.086Zm4.844,9.553a2.039,2.039,0,0,1-1.778.988h-.671a2.4,2.4,0,0,1-2.395-2.4V25.6a.021.021,0,0,1,.021-.021h2.879A2.358,2.358,0,0,1,35.126,29.243Z" transform="translate(-16.94 132.56)" fill="#fff"/>
      </g>
    </g>
    <g transform="translate(102 122)">
      <rect width="16" height="16" transform="translate(0 0)" fill="none"/>
      <path d="M3.5,3.5h10v3" fill="none" stroke="#2680eb" stroke-linecap="round" stroke-linejoin="round" stroke-width="1"/>
      <path d="M12.5,12.5H2.5v-3" fill="none" stroke="#2680eb" stroke-linecap="round" stroke-linejoin="round" stroke-width="1"/>
      <path d="M4.545,1.636,2.636,3.545l1.909,1.91" fill="none" stroke="#2680eb" stroke-linecap="round" stroke-linejoin="round" stroke-width="1"/>
      <path d="M11.455,10.545l1.909,1.91-1.909,1.909" fill="none" stroke="#2680eb" stroke-linecap="round" stroke-linejoin="round" stroke-width="1"/>
    </g>
    <g transform="translate(82 122)">
      <rect width="16" height="16" transform="translate(0 0)" fill="none"/>
      <circle cx="2" cy="2" r="2" transform="translate(1 11)" fill="#2680eb"/>
      <circle cx="2" cy="2" r="2" transform="translate(11 11)" fill="#2680eb"/>
      <path d="M1.5,1.5h2v8h10" fill="none" stroke="#2680eb" stroke-linecap="round" stroke-linejoin="round" stroke-width="1"/>
      <line y2="6" transform="translate(11.5 1.5)" fill="none" stroke="#2680eb" stroke-linecap="round" stroke-linejoin="round" stroke-width="1"/>
      <line x2="6" transform="translate(8.5 4.5)" fill="none" stroke="#2680eb" stroke-linecap="round" stroke-linejoin="round" stroke-width="1"/>
    </g>
    <g transform="translate(62 122)">
      <path d="M7.5,5.5V9l3,.5" fill="none" stroke="#2680eb" stroke-linecap="round" stroke-linejoin="round" stroke-width="1"/>
      <circle cx="6.5" cy="6.5" r="6.5" transform="translate(1.5 1.5)" fill="none" stroke="#2680eb" stroke-miterlimit="10" stroke-width="1"/>
      <rect width="16" height="16" transform="translate(0 0)" fill="none"/>
    </g>
    <g transform="translate(-88 153)">
      <g clip-path="url(#e)">
        <path d="M123.5-9.5h3.4l1.109,10h10.162l2.329-7h-10" fill="none" stroke="#111" stroke-linecap="round" stroke-linejoin="round" stroke-width="1"/>
        <circle cx="1.697" cy="1.697" r="1.697" transform="translate(126.893 4.103)" fill="none" stroke="#111" stroke-linecap="round" stroke-linejoin="round" stroke-width="1"/>
        <circle cx="1.697" cy="1.697" r="1.697" transform="translate(135.942 4.103)" fill="none" stroke="#111" stroke-linecap="round" stroke-linejoin="round" stroke-width="1"/>
        <rect width="24" height="24" transform="translate(120 -13)" fill="none"/>
      </g>
    </g>
    <g transform="translate(-45 154.051)">
      <rect width="24" height="24" transform="translate(101 -14.051)" fill="none"/>
      <path d="M120.08-10.449H105.92a1.4,1.4,0,0,0-1.42,1.383V3.551h0v2.8l2.83-2.8h12.749a1.42,1.42,0,0,0,1.421-1.44V-9.046a1.4,1.4,0,0,0-1.4-1.4Z" fill="none" stroke="#212121" stroke-linecap="round" stroke-linejoin="round" stroke-width="1"/>
      <line y2="6" transform="translate(113.5 -7.449)" fill="none" stroke="#212121" stroke-linecap="round" stroke-linejoin="round" stroke-width="1"/>
      <rect width="0.01" height="0.01" transform="translate(113.5 0.551) rotate(180)" fill="none" stroke="#212121" stroke-linecap="round" stroke-linejoin="round" stroke-width="1"/>
    </g>
    <g transform="translate(80 140)">
      <circle cx="9.5" cy="9.5" r="9.5" transform="translate(2.5 2.5)" fill="none" stroke="#111" stroke-miterlimit="10" stroke-width="1"/>
      <rect width="24" height="24" fill="none"/>
      <path d="M11,17h2V15H11ZM12.711,6.877A3.2,3.2,0,0,0,8.8,10h1.6a1.6,1.6,0,1,1,3.2,0c0,1.6-2.4,1.4-2.4,4h1.6c0-1.984,2.916-2.024,2.319-4.674a3.228,3.228,0,0,0-2.408-2.449Z" fill="#111"/>
    </g>
    <g transform="translate(6 74)">
      <rect width="16" height="16" transform="translate(112 48)" fill="none" opacity="0"/>
      <path d="M-308-33l-6-6,6-6" transform="translate(430 95)" fill="none" stroke="#212121" stroke-linecap="round" stroke-miterlimit="10" stroke-width="1"/>
    </g>
    <g transform="translate(134 122)">
      <rect width="16" height="16" fill="none" opacity="0"/>
      <path d="M-314-33l6-6-6-6" transform="translate(320 47)" fill="none" stroke="#212121" stroke-linecap="round" stroke-miterlimit="10" stroke-width="1"/>
    </g>
    <g transform="translate(104 140)">
      <path d="M0,0H24V24H0Z" fill="none"/>
      <circle cx="9" cy="9" r="9" transform="translate(3 3)" fill="none" stroke="#616161" stroke-linecap="round" stroke-linejoin="round" stroke-width="2"/>
      <path d="M12,17v.01" transform="translate(0 -5)" fill="none" stroke="#616161" stroke-linecap="round" stroke-linejoin="round" stroke-width="2"/>
      <path d="M12,17v.01" transform="translate(-4 -5)" fill="none" stroke="#616161" stroke-linecap="round" stroke-linejoin="round" stroke-width="2"/>
      <path d="M12,17v.01" transform="translate(4 -5)" fill="none" stroke="#616161" stroke-linecap="round" stroke-linejoin="round" stroke-width="2"/>
    </g>
    <g transform="translate(-292 -554)">
      <path d="M450.909,571.091a1.818,1.818,0,1,1-1.818,1.818,1.818,1.818,0,0,1,1.818-1.818m0-1.091a2.909,2.909,0,1,0,2.909,2.909A2.909,2.909,0,0,0,450.909,570Z" transform="translate(-8.909 -8.909)" fill="#1d1d1d"/>
      <path d="M443.091,557.091v1.2a5.785,5.785,0,0,1,2.179.9l.845-.844,1.543,1.543-.844.845a5.786,5.786,0,0,1,.9,2.179h1.2V565.1h-1.2a5.786,5.786,0,0,1-.9,2.179l.844.845-1.543,1.543-.845-.844a5.784,5.784,0,0,1-2.179.9v1.2h-2.182v-1.2a5.784,5.784,0,0,1-2.179-.9l-.845.844-1.543-1.543.844-.845a5.785,5.785,0,0,1-.9-2.179h-1.2v-2.182h1.2a5.784,5.784,0,0,1,.9-2.179l-.844-.845,1.543-1.543.845.844a5.785,5.785,0,0,1,2.179-.9v-1.2h2.182m0-1.091h-2.182a1.091,1.091,0,0,0-1.091,1.091v.354a6.773,6.773,0,0,0-.911.376l-.25-.25a1.092,1.092,0,0,0-1.543,0l-1.543,1.543a1.091,1.091,0,0,0,0,1.543l.25.25a6.739,6.739,0,0,0-.376.911h-.355a1.091,1.091,0,0,0-1.09,1.091v2.182a1.091,1.091,0,0,0,1.091,1.091h.355a6.75,6.75,0,0,0,.376.911l-.25.25a1.091,1.091,0,0,0,0,1.543l1.543,1.543a1.092,1.092,0,0,0,1.543,0l.25-.25a6.77,6.77,0,0,0,.911.376v.354a1.091,1.091,0,0,0,1.09,1.091h2.182a1.091,1.091,0,0,0,1.091-1.091v-.354a6.753,6.753,0,0,0,.911-.376l.25.25a1.092,1.092,0,0,0,1.543,0l1.543-1.543a1.091,1.091,0,0,0,0-1.543l-.25-.25a6.75,6.75,0,0,0,.376-.911h.355a1.091,1.091,0,0,0,1.09-1.091v-2.182a1.091,1.091,0,0,0-1.091-1.091h-.355a6.747,6.747,0,0,0-.376-.911l.25-.25a1.091,1.091,0,0,0,0-1.543l-1.543-1.543a1.092,1.092,0,0,0-1.543,0l-.25.25a6.755,6.755,0,0,0-.911-.376v-.354a1.091,1.091,0,0,0-1.09-1.091Z" fill="#1d1d1d"/>
    </g>
    <g transform="translate(158 140)"><rect width="24" height="24" transform="translate(-29)" fill="none"/><rect width="24" height="24" transform="translate(-29)" fill="none"/><path d="M-25,7H-9" fill="none" stroke="#e23c53" stroke-linecap="round" stroke-linejoin="round" stroke-width="2"/><path d="M-11,7V19.222A1.778,1.778,0,0,1-12.778,21h-8.444A1.778,1.778,0,0,1-23,19.222V7m3,0V4.778A1.778,1.778,0,0,1-18.222,3h2.444A1.778,1.778,0,0,1-14,4.778V7" fill="none" stroke="#e23c53" stroke-linecap="round" stroke-linejoin="round" stroke-width="2"/><path d="M-19,11v5" fill="none" stroke="#e23c53" stroke-linecap="round" stroke-linejoin="round" stroke-width="2"/><path d="M-15,11v5" fill="none" stroke="#e23c53" stroke-linecap="round" stroke-linejoin="round" stroke-width="2"/></g>
    <g transform="translate(275 140)"><rect width="24" height="24" transform="translate(-121)" fill="none"/><rect width="24" height="24" transform="translate(-121)" fill="none"/><path d="M-101,15v3.222A1.778,1.778,0,0,1-102.778,20h-12.444A1.778,1.778,0,0,1-117,18.222V15" fill="none" stroke="#717285" stroke-linecap="round" stroke-linejoin="round" stroke-width="2"/><path d="M-113.444,10.528-109,14.972l4.444-4.444" fill="none" stroke="#717285" stroke-linecap="round" stroke-linejoin="round" stroke-width="2"/><path d="M-109,15V4" fill="none" stroke="#717285" stroke-linecap="round" stroke-linejoin="round" stroke-width="2"/></g>
    <g transform="translate(357 140)"><rect width="24" height="24" transform="translate(-177)" fill="none"/><rect width="24" height="24" transform="translate(-177)" fill="none"/><path d="M-157,11.287l-7.527,7.527a5.629,5.629,0,0,1-7.869,0,5.627,5.627,0,0,1,0-7.869l6.672-6.672a3.821,3.821,0,0,1,5.4-.07c.023.023.047.046.07.07a3.822,3.822,0,0,1,.07,5.4l-.07.07-6.159,6.073a2.116,2.116,0,0,1-2.993-.03,2.116,2.116,0,0,1,0-2.963l5.132-5.133" fill="none" stroke="#717285" stroke-linecap="round" stroke-miterlimit="10" stroke-width="2"/></g>
    <g transform="translate(35 175)"><rect width="24" height="24" transform="translate(-31)" fill="none"/><rect width="24" height="24" transform="translate(-31)" fill="none"/><g transform="translate(0 -1)"><circle cx="3.361" cy="3.361" r="3.361" transform="translate(-24.749 5.565)" fill="none" stroke="#717285" stroke-linecap="round" stroke-linejoin="round" stroke-width="2"/><circle cx="2.24" cy="2.24" r="2.24" transform="translate(-15.788 6.685)" fill="none" stroke="#717285" stroke-linecap="round" stroke-linejoin="round" stroke-width="2"/><path d="M-21.389,14.4a5.6,5.6,0,0,0-5.6,5.6h11.2A5.6,5.6,0,0,0-21.389,14.4Z" fill="none" stroke="#717285" stroke-linecap="round" stroke-linejoin="round" stroke-width="2"/><path d="M-15.219,13.079a3.36,3.36,0,0,1,4.658.942A3.358,3.358,0,0,1-10,15.88V17h-4" fill="none" stroke="#717285" stroke-linecap="round" stroke-linejoin="round" stroke-width="2"/></g></g>
    <g transform="translate(35 180)"><path d="M8,0a8,8,0,1,0,8,8A8.024,8.024,0,0,0,8,0ZM7,11.4,3.6,8,5,6.6l2,2,4-4L12.4,6Z" fill="#46bf6f"/></g>
    <g transform="translate(470 202)"><rect width="24" height="24" transform="translate(-412 -27)" fill="none"/><rect width="24" height="24" transform="translate(-412 -27)" fill="rgba(255,255,255,0)"/><path d="M-400-22v3" fill="none" stroke="#000" stroke-linecap="round" stroke-linejoin="round" stroke-width="2"/><path d="M-393.793-19.633l-1.693,1.692" fill="none" stroke="#000" stroke-linecap="round" stroke-linejoin="round" stroke-width="2"/><path d="M-392-13h-2" fill="none" stroke="#000" stroke-linecap="round" stroke-linejoin="round" stroke-width="2"/><path d="M-403.989-17.416l2.861,2.862" fill="none" stroke="#000" stroke-linecap="round" stroke-linejoin="round" stroke-width="2"/><path d="M-408-13h2" fill="none" stroke="#000" stroke-linecap="round" stroke-linejoin="round" stroke-width="2"/><circle cx="1.596" cy="1.596" r="1.596" transform="translate(-401.596 -15.022)" fill="none" stroke="#000" stroke-linecap="round" stroke-linejoin="round" stroke-width="2"/><path d="M-393.229-8a8.778,8.778,0,0,0-1.185-12.357,8.778,8.778,0,0,0-12.357,1.185,8.777,8.777,0,0,0,0,11.172" fill="none" stroke="#000" stroke-linecap="round" stroke-linejoin="round" stroke-width="2"/></g>
    <g transform="translate(475 202)"><path d="M-363.967-18l-4.853-.718-2.168-4.481a1.159,1.159,0,0,0-1.6-.432,1.2,1.2,0,0,0-.424.432l-2.166,4.481-4.855.718a1.143,1.143,0,0,0-.955,1.3,1.151,1.151,0,0,0,.33.66l3.513,3.487-.829,4.927a1.144,1.144,0,0,0,.918,1.323,1.113,1.113,0,0,0,.716-.117L-372-8.748l4.342,2.325A1.113,1.113,0,0,0-366.14-6.9a1.16,1.16,0,0,0,.113-.726l-.829-4.927,3.514-3.486a1.161,1.161,0,0,0,.025-1.62,1.117,1.117,0,0,0-.649-.337Z" fill="none" stroke="#000" stroke-linecap="round" stroke-linejoin="round" stroke-width="2"/><rect width="24" height="24" transform="translate(-384 -27)" fill="none"/></g>
    <g transform="translate(480 202)"><rect width="24" height="24" transform="translate(-357 -27)" fill="none"/><rect width="6" height="6" rx="1" transform="translate(-353 -23)" fill="none" stroke="#000" stroke-linecap="round" stroke-linejoin="round" stroke-width="2"/><rect width="6" height="6" rx="1" transform="translate(-343 -23)" fill="none" stroke="#000" stroke-linecap="round" stroke-linejoin="round" stroke-width="2"/><rect width="6" height="6" rx="1" transform="translate(-353 -13)" fill="none" stroke="#000" stroke-linecap="round" stroke-linejoin="round" stroke-width="2"/><rect width="6" height="6" rx="1" transform="translate(-343 -13)" fill="none" stroke="#000" stroke-linecap="round" stroke-linejoin="round" stroke-width="2"/></g>
    <g transform="translate(455 175)"><rect width="24" height="24" transform="translate(-300)" fill="none"/><g fill="none" stroke-linecap="round" stroke-linejoin="round"><path d="M-282,7.882C-282,11.513-288,18-288,18s-6-6.487-6-10.118A5.891,5.891,0,0,1-288,2,5.891,5.891,0,0,1-282,7.882Z" stroke="none"/><path d="M -288 4 C -289.0049743652344 4 -290.011962890625 4.380510330200195 -290.7627868652344 5.043970108032227 C -291.3272094726563 5.542699813842773 -292 6.439920425415039 -292 7.881999969482422 C -292 8.260600090026855 -291.8126220703125 9.755749702453613 -289.4017028808594 13.09971046447754 C -288.9184875488281 13.76989841461182 -288.4317321777344 14.39426612854004 -287.9997863769531 14.92636871337891 C -287.5755920410156 14.40366172790527 -287.097900390625 13.79106140136719 -286.6210021972656 13.13115978240967 C -284.1889953613281 9.76587963104248 -284 8.262579917907715 -284 7.881999969482422 C -284 6.439920425415039 -284.6727905273438 5.542699813842773 -285.2372131347656 5.043970108032227 C -285.988037109375 4.380510330200195 -286.9950256347656 4 -288 4 M -288 2 C -285.1010131835938 2 -282 4.159999847412109 -282 7.881999969482422 C -282 11.51299953460693 -288 18 -288 18 C -288 18 -294 11.51299953460693 -294 7.881999969482422 C -294 4.159999847412109 -290.8989868164063 2 -288 2 Z" stroke="none" fill="#717285"/></g><path d="M-292.571,16.258c-2.073.371-3.429.988-3.429,1.687,0,1.135,3.582,2.055,8,2.055s8-.92,8-2.055c0-.7-1.356-1.316-3.429-1.687" fill="none" stroke="#717285" stroke-linecap="round" stroke-linejoin="round" stroke-width="2"/><circle cx="1" cy="1" r="1" transform="translate(-289 7)" fill="none" stroke="#717285" stroke-linecap="round" stroke-linejoin="round" stroke-width="2"/></g>
  </g>
</svg>
