<svg _ngcontent-sme-c159="" xmlns="http://www.w3.org/2000/svg" width="24" height="24" viewBox="0 0 24 24"><rect _ngcontent-sme-c159="" width="24" height="24" fill="none"></rect><path _ngcontent-sme-c159="" d="M6,8A2,2,0,1,0,4,6,2,2,0,0,0,6,8Zm6,12a2,2,0,1,0-2-2A2,2,0,0,0,12,20ZM6,20a2,2,0,1,0-2-2A2,2,0,0,0,6,20Zm0-6a2,2,0,1,0-2-2A2,2,0,0,0,6,14Zm6,0a2,2,0,1,0-2-2A2,2,0,0,0,12,14Zm4-8a2,2,0,1,0,2-2A2,2,0,0,0,16,6ZM12,8a2,2,0,1,0-2-2A2,2,0,0,0,12,8Zm6,6a2,2,0,1,0-2-2A2,2,0,0,0,18,14Zm0,6a2,2,0,1,0-2-2A2,2,0,0,0,18,20Z" fill="#000"></path></svg>