<svg xmlns="http://www.w3.org/2000/svg" width="24" height="24" viewBox="0 0 24 24"><g transform="translate(0 0)"><rect width="24" height="24" transform="translate(0 0)" fill="none"/><path d="M19,11.117V8.039a6.8,6.8,0,0,0-4.159-6.361A7.041,7.041,0,0,0,5,8.117v3c0,3.3-3,4.1-3,6,0,1.7,3.9,3,10,3s10-1.3,10-3C22,15.217,19,14.417,19,11.117Z" fill="none" stroke="#616161" stroke-linecap="square" stroke-miterlimit="10" stroke-width="2"/><path d="M12.02,21.528q-1.358,0-2.712-.095a2.842,2.842,0,0,0,5.424,0C13.883,21.5,12.981,21.528,12.02,21.528Z" fill="#616161"/></g></svg>