<svg xmlns="http://www.w3.org/2000/svg" xmlns:xlink="http://www.w3.org/1999/xlink" width="32" height="32" viewBox="0 0 32 32">
  <defs>
    <linearGradient id="linear-gradient" x1="0.098" y1="0.098" x2="0.805" y2="0.805" gradientUnits="objectBoundingBox">
      <stop offset="0" stop-color="#53d7fe"/>
      <stop offset="1" stop-color="#00bafd"/>
    </linearGradient>
    <linearGradient id="linear-gradient-2" x1="0.636" y1="1.198" x2="0.481" y2="0.198" gradientUnits="objectBoundingBox">
      <stop offset="0" stop-color="#00bafd"/>
      <stop offset="0.09" stop-color="#00bbfb" stop-opacity="0.839"/>
      <stop offset="0.23" stop-color="#00bcf8" stop-opacity="0.62"/>
      <stop offset="0.36" stop-color="#00bdf6" stop-opacity="0.431"/>
      <stop offset="0.5" stop-color="#00bef4" stop-opacity="0.271"/>
      <stop offset="0.63" stop-color="#00bff3" stop-opacity="0.149"/>
      <stop offset="0.76" stop-color="#00c0f2" stop-opacity="0.071"/>
      <stop offset="0.88" stop-color="#00c0f1" stop-opacity="0.02"/>
      <stop offset="1" stop-color="#00c0f1" stop-opacity="0"/>
    </linearGradient>
    <linearGradient id="linear-gradient-3" x1="0" y1="0.5" x2="1" y2="0.5" xlink:href="#linear-gradient"/>
  </defs>
  <g id="Group_55159" data-name="Group 55159" transform="translate(0 -0.133)">
    <rect id="Rectangle_23721" data-name="Rectangle 23721" width="32" height="32" rx="8" transform="translate(0 0.133)" fill="url(#linear-gradient)"/>
    <circle id="Ellipse_4450" data-name="Ellipse 4450" cx="9.39" cy="9.39" r="9.39" transform="translate(6.605 6.653)" fill="#fff"/>
    <path id="Path_82199" data-name="Path 82199" d="M160.79,148.88h12.494v12.494H160.79Z" transform="translate(-150.724 -139.48)" fill="none"/>
    <path id="Path_82200" data-name="Path 82200" d="M303.384,258.763a9.145,9.145,0,0,1-3.376,6.9l-3.438-2.6c.054-.066,3.426-4.241,3.389-4.378Z" transform="translate(-278.004 -242.406)" opacity="0.7" fill="url(#linear-gradient-2)"/>
    <path id="Path_82201" data-name="Path 82201" d="M253.438,330.66a.743.743,0,0,1-.744.743H245.62s.086-2.88.086-3.824a7.512,7.512,0,0,0,3.024-.92h0l.116-.074h0a.834.834,0,0,1,.881.063l.181.181,3.342,3.342A.738.738,0,0,1,253.438,330.66Z" transform="translate(-230.243 -305.969)" fill="#fff"/>
    <circle id="Ellipse_4451" data-name="Ellipse 4451" cx="5.279" cy="5.279" r="5.279" transform="translate(10.716 10.764)" fill="url(#linear-gradient-3)"/>
  </g>
</svg>
